# xmcd CD database file
#
# Track frame offsets:
#	150
#	14007
#	30485
#	44170
#	57267
#	68542
#	84054
#	100020
#	119907
#	135232
#	147170
#	160272
#	185127
#
# Disc length: 2841 seconds
#
# Revision: 1
# Processed by: cddbd v1.5.2PL0 Copyright (c) Steve Scherf et al.
# Submitted via: CDex 1.51
#
DISCID=b00b170d
DTITLE=Sektor Gaza - Gulyaj, Mujik
DYEAR=1994
DGENRE=Punk Rock
TTITLE0=Gulyaj, Mujik
TTITLE1=Masturbacya
TTITLE2=Vidak
TTITLE3=Kolhoznaya
TTITLE4=Ya Ustal
TTITLE5=L.T.P.
TTITLE6=Bomj
TTITLE7=Tripak
TTITLE8=Yak na Hutore...
TTITLE9=Vurdalak
TTITLE10=Moja Babka
TTITLE11=Chastushki
TTITLE12=Vidak (Styob House rmx)
EXTD=YEAR: 1994
EXTT0=
EXTT1=
EXTT2=
EXTT3=
EXTT4=
EXTT5=
EXTT6=
EXTT7=
EXTT8=
EXTT9=
EXTT10=
EXTT11=
EXTT12=
PLAYORDER=
